<svg
    xmlns="http://www.w3.org/2000/svg"
    width="637.253"
    height="638.085"
    viewBox="0 0 637.253 638.085"
  >
    <g
      id="Simple_Shiny"
      data-name="Simple Shiny"
      transform="matrix(0.719, 0.695, -0.695, 0.719, 324.98, 0)"
    >
      <path
        id="Path_31"
        data-name="Path 31"
        d="M228.92,462.8c38.687-9.7,60.144-48.755,92.946-71.446,31.293-21.648,75.282-26.281,95.195-58.706,20.5-33.38,20.183-76.451,11.231-114.586-8.549-36.421-39.7-60.722-59.792-92.282C344.128,87.49,338.125,33.24,297.618,12.763c-41-20.727-95.7-15.151-134.731,9.078-37.448,23.245-39.746,75.735-62.611,113.416C82.2,165.048,57.116,188.236,42.671,219.949,23.443,262.16-9.039,305.23,2.368,350.19c11.515,45.385,55.961,75.9,97.89,96.738,39.5,19.632,85.88,26.6,128.661,15.872"
        transform="translate(0 0)"
        fill="#eeb4c1"
      />
    </g>
  </svg>